<?xml version="1.0" encoding="utf-8"?>
<!-- Generator: Adobe Illustrator 16.0.0, SVG Export Plug-In . SVG Version: 6.00 Build 0)  -->
<!DOCTYPE svg PUBLIC "-//W3C//DTD SVG 1.1//EN" "http://www.w3.org/Graphics/SVG/1.1/DTD/svg11.dtd">
<svg version="1.1" id="Layer_1" xmlns="http://www.w3.org/2000/svg" xmlns:xlink="http://www.w3.org/1999/xlink" x="0px" y="0px"
	 width="626.367px" height="371.632px" viewBox="0 0 626.367 371.632" enable-background="new 0 0 626.367 371.632"
	 xml:space="preserve">
<g>
	<path fill="#676767" d="M0,332.351h3.215l9.002,26.188l9.002-26.305h2.279l9.002,26.305l9.002-26.188h3.098l-10.931,30.046h-2.455
		l-8.885-25.545l-8.943,25.545h-2.456L0,332.351z"/>
	<path fill="#676767" d="M46.552,347.373v-0.116c0-8.359,6.488-15.607,15.374-15.607c8.827,0,15.256,7.132,15.256,15.49v0.117
		c0,8.357-6.488,15.606-15.374,15.606C52.982,362.863,46.552,355.732,46.552,347.373z M74.084,347.373v-0.116
		c0-7.19-5.378-12.919-12.276-12.919c-7.073,0-12.159,5.787-12.159,12.802v0.117c0,7.189,5.378,12.918,12.276,12.918
		C68.999,360.175,74.084,354.388,74.084,347.373z"/>
	<path fill="#676767" d="M83.273,332.351h2.865v8.476c2.338-5.319,7.307-9.177,13.211-8.943v3.157h-0.292
		c-6.898,0-12.918,5.202-12.918,14.905v12.217h-2.865V332.351z"/>
	<path fill="#676767" d="M103.79,319.49h2.864v42.672h-2.864V319.49z"/>
	<path fill="#676767" d="M112.961,347.373v-0.116c0-9.704,7.307-15.607,14.497-15.607c5.963,0,9.821,3.391,12.275,7.132V319.49
		h2.864v42.672h-2.864v-6.664c-2.572,3.917-6.372,7.365-12.275,7.365C120.269,362.863,112.961,357.076,112.961,347.373z
		 M139.909,347.314v-0.116c0-7.658-5.963-12.802-12.159-12.802c-6.489,0-11.691,4.734-11.691,12.743v0.117
		c0,7.833,5.436,12.859,11.691,12.859C133.946,360.116,139.909,354.914,139.909,347.314z"/>
	<path fill="#676767" d="M165.51,332.351h3.214l9.002,26.188l9.002-26.305h2.28l9.002,26.305l9.002-26.188h3.099l-10.931,30.046
		h-2.456l-8.885-25.545l-8.944,25.545h-2.455L165.51,332.351z"/>
	<path fill="#676767" d="M214.751,320.659h3.566v3.916h-3.566V320.659z M215.102,332.351h2.864v29.812h-2.864V332.351z"/>
	<path fill="#676767" d="M224.156,347.373v-0.116c0-9.704,7.307-15.607,14.497-15.607c5.962,0,9.82,3.391,12.276,7.132V319.49h2.864
		v42.672h-2.864v-6.664c-2.572,3.917-6.372,7.365-12.276,7.365C231.463,362.863,224.156,357.076,224.156,347.373z M251.104,347.314
		v-0.116c0-7.658-5.962-12.802-12.158-12.802c-6.488,0-11.691,4.734-11.691,12.743v0.117c0,7.833,5.436,12.859,11.691,12.859
		C245.141,360.116,251.104,354.914,251.104,347.314z"/>
	<path fill="#676767" d="M259.988,347.314v-0.116c0-8.651,6.079-15.549,14.146-15.549c8.359,0,13.678,6.78,13.678,15.607
		c0,0.525,0,0.701-0.059,1.169h-24.727c0.526,7.424,5.846,11.749,11.691,11.749c4.618,0,7.775-2.046,10.23-4.677l1.987,1.754
		c-3.04,3.273-6.605,5.611-12.334,5.611C266.769,362.863,259.988,356.609,259.988,347.314z M284.714,345.854
		c-0.409-6.021-3.858-11.574-10.697-11.574c-5.904,0-10.463,4.969-10.99,11.574H284.714z"/>
	<path fill="#676767" d="M308.211,332.351h3.215l9.002,26.188l9.002-26.305h2.28l9.001,26.305l9.003-26.188h3.098l-10.931,30.046
		h-2.455l-8.886-25.545l-8.943,25.545h-2.455L308.211,332.351z"/>
	<path fill="#676767" d="M354.764,347.314v-0.116c0-8.651,6.08-15.549,14.146-15.549c8.358,0,13.679,6.78,13.679,15.607
		c0,0.525,0,0.701-0.059,1.169h-24.727c0.525,7.424,5.846,11.749,11.69,11.749c4.618,0,7.774-2.046,10.23-4.677l1.987,1.754
		c-3.039,3.273-6.605,5.611-12.333,5.611C361.545,362.863,354.764,356.609,354.764,347.314z M379.491,345.854
		c-0.409-6.021-3.859-11.574-10.698-11.574c-5.904,0-10.464,4.969-10.989,11.574H379.491z"/>
	<path fill="#676767" d="M391.303,355.732v6.43h-2.864V319.49h2.864v19.524c2.573-3.917,6.372-7.365,12.276-7.365
		c7.19,0,14.496,5.786,14.496,15.49v0.117c0,9.703-7.306,15.606-14.496,15.606C397.616,362.863,393.76,359.474,391.303,355.732z
		 M414.978,347.373v-0.116c0-7.834-5.437-12.86-11.69-12.86c-6.196,0-12.159,5.203-12.159,12.802v0.116
		c0,7.658,5.963,12.802,12.159,12.802C409.774,360.116,414.978,355.382,414.978,347.373z"/>
	<path fill="#676767" d="M441.631,319.49h2.863v18.413c1.989-3.507,5.321-6.254,10.757-6.254c7.542,0,11.926,5.144,11.926,12.274
		v18.238h-2.865v-17.711c0-6.139-3.448-10.172-9.471-10.172c-5.845,0-10.347,4.443-10.347,10.639v17.244h-2.863V319.49z"/>
	<path fill="#676767" d="M472.74,347.373v-0.116c0-8.359,6.488-15.607,15.374-15.607c8.827,0,15.257,7.132,15.257,15.49v0.117
		c0,8.357-6.489,15.606-15.374,15.606C479.17,362.863,472.74,355.732,472.74,347.373z M500.272,347.373v-0.116
		c0-7.19-5.379-12.919-12.275-12.919c-7.073,0-12.158,5.787-12.158,12.802v0.117c0,7.189,5.377,12.918,12.275,12.918
		C495.187,360.175,500.272,354.388,500.272,347.373z"/>
	<path fill="#676767" d="M506.141,358.421l1.694-2.279c3.274,2.514,6.898,3.916,10.698,3.916c4.033,0,7.19-2.221,7.19-5.67v-0.117
		c0-3.507-3.741-4.792-7.893-5.962c-4.851-1.403-10.229-2.864-10.229-8.184v-0.116c0-4.794,4.034-8.242,9.82-8.242
		c3.566,0,7.601,1.285,10.58,3.273l-1.519,2.396c-2.748-1.812-6.021-2.98-9.177-2.98c-4.094,0-6.781,2.221-6.781,5.202v0.117
		c0,3.332,4.032,4.56,8.299,5.786c4.794,1.345,9.821,3.099,9.821,8.36v0.116c0,5.319-4.56,8.709-10.288,8.709
		C514.032,362.746,509.297,360.993,506.141,358.421z"/>
	<path fill="#676767" d="M536.46,354.505v-19.523h-4.326v-2.631h4.326v-9.529h2.865v9.529h10.464v2.631h-10.464v19.231
		c0,4.268,2.514,5.787,5.962,5.787c1.463,0,2.688-0.292,4.385-1.053v2.689c-1.521,0.701-2.981,1.053-4.853,1.053
		C540.202,362.689,536.46,360.175,536.46,354.505z"/>
	<path fill="#676767" d="M554.412,320.659h3.565v3.916h-3.565V320.659z M554.762,332.351h2.864v29.812h-2.864V332.351z"/>
	<path fill="#676767" d="M565.691,332.351h2.864v5.553c1.989-3.507,5.321-6.254,10.756-6.254c7.542,0,11.927,5.144,11.927,12.274
		v18.238h-2.865v-17.711c0-6.139-3.448-10.172-9.471-10.172c-5.844,0-10.347,4.443-10.347,10.639v17.244h-2.864V332.351z"/>
	<path fill="#676767" d="M598.075,367.072l1.696-2.338c3.565,2.748,7.656,4.209,12.04,4.209c6.84,0,11.691-3.917,11.691-11.574
		v-4.326c-2.57,3.684-6.546,6.898-12.45,6.898c-7.19,0-14.321-5.495-14.321-14.029v-0.117c0-8.593,7.131-14.146,14.321-14.146
		c5.963,0,9.996,3.155,12.45,6.663v-5.962h2.864v25.194c0,4.325-1.402,7.716-3.799,10.112c-2.572,2.571-6.431,3.975-10.814,3.975
		C606.785,371.632,602.167,370.112,598.075,367.072z M623.679,345.854v-0.117c0-6.897-6.138-11.34-12.333-11.34
		c-6.255,0-11.517,4.326-11.517,11.282v0.116c0,6.723,5.378,11.399,11.517,11.399C617.541,357.194,623.679,352.634,623.679,345.854z
		"/>
</g>
<g>
	<g>
		
			<ellipse fill-rule="evenodd" clip-rule="evenodd" fill="#4C9CD6" stroke="#4C9CD6" stroke-miterlimit="10" cx="401.467" cy="59.392" rx="22.554" ry="22.651"/>
		<path fill-rule="evenodd" clip-rule="evenodd" fill="#4C9CD6" stroke="#4C9CD6" stroke-miterlimit="10" d="M509.498,210.817
			c0-12.513,10.103-22.652,22.556-22.652c12.456,0,22.547,10.14,22.547,22.652c0,12.505-10.091,22.645-22.547,22.645
			C519.601,233.462,509.498,223.322,509.498,210.817z"/>
		<path fill-rule="evenodd" clip-rule="evenodd" fill="#4C9CD6" stroke="#4C9CD6" stroke-miterlimit="10" d="M219.982,23.151
			c0-12.506,10.098-22.651,22.554-22.651c12.454,0,22.548,10.145,22.548,22.651c0,12.51-10.095,22.649-22.548,22.649
			C230.08,45.8,219.982,35.661,219.982,23.151z"/>
		
			<ellipse fill-rule="evenodd" clip-rule="evenodd" fill="#4C9CD6" stroke="#4C9CD6" stroke-miterlimit="10" cx="110.996" cy="76.219" rx="22.552" ry="22.652"/>
		<path fill-rule="evenodd" clip-rule="evenodd" fill="#4C9CD6" stroke="#4C9CD6" stroke-miterlimit="10" d="M149.966,173.717
			c0-12.512,10.098-22.649,22.551-22.649c12.455,0,22.549,10.137,22.549,22.649c0,12.51-10.094,22.65-22.549,22.65
			C160.064,196.367,149.966,186.228,149.966,173.717z"/>
		<path fill-rule="evenodd" clip-rule="evenodd" fill="#4C9CD6" stroke="#4C9CD6" stroke-miterlimit="10" d="M406.837,97.169
			c0-12.507,10.098-22.647,22.554-22.647c12.453,0,22.55,10.14,22.55,22.647c0,12.513-10.097,22.652-22.55,22.652
			C416.935,119.821,406.837,109.682,406.837,97.169z"/>
		<path fill-rule="evenodd" clip-rule="evenodd" fill="#4C9CD6" stroke="#4C9CD6" stroke-miterlimit="10" d="M427.023,55.507
			c0-12.509,10.097-22.647,22.551-22.647c12.459,0,22.559,10.139,22.559,22.647c0,12.512-10.1,22.652-22.559,22.652
			C437.12,78.159,427.023,68.02,427.023,55.507z"/>
		
			<ellipse fill-rule="evenodd" clip-rule="evenodd" fill="#4C9CD6" stroke="#4C9CD6" stroke-miterlimit="10" cx="284.628" cy="127.121" rx="22.554" ry="22.647"/>
		<path fill-rule="evenodd" clip-rule="evenodd" fill="#4C9CD6" stroke="#4C9CD6" stroke-miterlimit="10" d="M311.475,121.515
			c0-12.51,10.099-22.65,22.553-22.65c12.457,0,22.556,10.14,22.556,22.65c0,12.512-10.099,22.649-22.556,22.649
			C321.573,144.165,311.475,134.027,311.475,121.515z"/>
		<path fill-rule="evenodd" clip-rule="evenodd" fill="#4C9CD6" stroke="#4C9CD6" stroke-miterlimit="10" d="M166.288,216.421
			c0-12.505,10.099-22.646,22.554-22.646s22.547,10.142,22.547,22.646c0,12.513-10.091,22.652-22.547,22.652
			S166.288,228.934,166.288,216.421z"/>
		
			<ellipse fill-rule="evenodd" clip-rule="evenodd" fill="#4C9CD6" stroke="#4C9CD6" stroke-miterlimit="10" cx="355.506" cy="61.117" rx="22.555" ry="22.65"/>
		<path fill-rule="evenodd" clip-rule="evenodd" fill="#4C9CD6" stroke="#4C9CD6" stroke-miterlimit="10" d="M314.05,168.539
			c0-12.507,10.101-22.649,22.558-22.649c12.452,0,22.551,10.142,22.551,22.649c0,12.51-10.099,22.647-22.551,22.647
			C324.15,191.187,314.05,181.049,314.05,168.539z"/>
	</g>
	<g>
		<path fill-rule="evenodd" clip-rule="evenodd" fill="#87C0E8" d="M196.021,183.33c0-8.576,6.924-15.528,15.468-15.528
			c8.537,0,15.461,6.952,15.461,15.528c0,8.581-6.925,15.535-15.461,15.535C202.945,198.864,196.021,191.91,196.021,183.33z"/>
		<path fill-rule="evenodd" clip-rule="evenodd" fill="#87C0E8" d="M133.547,66.508c0-8.577,6.922-15.531,15.465-15.531
			c8.54,0,15.462,6.955,15.462,15.531c0,8.579-6.922,15.532-15.462,15.532C140.469,82.04,133.547,75.087,133.547,66.508z"/>
		<path fill-rule="evenodd" clip-rule="evenodd" fill="#87C0E8" d="M100.996,114.398c0-8.58,6.927-15.533,15.462-15.533
			c8.542,0,15.467,6.953,15.467,15.533c0,8.578-6.924,15.531-15.467,15.531C107.923,129.929,100.996,122.976,100.996,114.398z"/>
		<path fill-rule="evenodd" clip-rule="evenodd" fill="#87C0E8" d="M80.81,40.438c0-8.574,6.92-15.526,15.461-15.526
			c8.543,0,15.464,6.952,15.464,15.526c0,8.579-6.921,15.532-15.464,15.532C87.73,55.97,80.81,49.018,80.81,40.438z"/>
		<path fill-rule="evenodd" clip-rule="evenodd" fill="#87C0E8" d="M112.688,41.391c0-8.571,6.927-15.525,15.463-15.525
			c8.541,0,15.468,6.954,15.468,15.525c0,8.58-6.927,15.533-15.468,15.533C119.615,56.924,112.688,49.971,112.688,41.391z"/>
		<path fill-rule="evenodd" clip-rule="evenodd" fill="#87C0E8" d="M351.567,100.126c0-8.571,6.926-15.525,15.462-15.525
			c8.541,0,15.467,6.955,15.467,15.525c0,8.578-6.926,15.536-15.467,15.536C358.493,115.662,351.567,108.705,351.567,100.126z"/>
		<path fill-rule="evenodd" clip-rule="evenodd" fill="#87C0E8" d="M453.272,104.469c0-8.57,6.926-15.526,15.462-15.526
			c8.541,0,15.469,6.956,15.469,15.526c0,8.581-6.928,15.533-15.469,15.533C460.198,120.002,453.272,113.05,453.272,104.469z"/>
		<path fill-rule="evenodd" clip-rule="evenodd" fill="#87C0E8" d="M298.585,66.507c0-8.572,6.926-15.526,15.462-15.526
			c8.542,0,15.469,6.954,15.469,15.526c0,8.578-6.927,15.533-15.469,15.533C305.511,82.04,298.585,75.084,298.585,66.507z"/>
		<path fill-rule="evenodd" clip-rule="evenodd" fill="#87C0E8" d="M471.696,41.484c0-8.573,6.925-15.527,15.462-15.527
			c8.544,0,15.468,6.954,15.468,15.527c0,8.578-6.924,15.533-15.468,15.533C478.621,57.018,471.696,50.062,471.696,41.484z"/>
		<path fill-rule="evenodd" clip-rule="evenodd" fill="#87C0E8" d="M180.465,48.391c0-8.579,6.921-15.531,15.464-15.531
			c8.539,0,15.459,6.952,15.459,15.531s-6.921,15.53-15.459,15.53C187.386,63.921,180.465,56.97,180.465,48.391z"/>
	</g>
	<g>
		<path fill-rule="evenodd" clip-rule="evenodd" fill="#18629C" d="M384.204,93.937c0-5.453,4.399-9.866,9.824-9.866
			c5.429,0,9.819,4.413,9.819,9.866c0,5.447-4.391,9.858-9.819,9.858C388.604,103.794,384.204,99.384,384.204,93.937z"/>
		<path fill-rule="evenodd" clip-rule="evenodd" fill="#18629C" d="M466.186,78.011c0-5.452,4.402-9.866,9.824-9.866
			c5.429,0,9.822,4.414,9.822,9.866c0,5.45-4.394,9.861-9.822,9.861C470.588,87.872,466.186,83.46,466.186,78.011z"/>
		<ellipse fill-rule="evenodd" clip-rule="evenodd" fill="#18629C" cx="155.498" cy="39.126" rx="9.821" ry="9.865"/>
		<ellipse fill-rule="evenodd" clip-rule="evenodd" fill="#18629C" cx="133.957" cy="136.056" rx="9.822" ry="9.866"/>
		<path fill-rule="evenodd" clip-rule="evenodd" fill="#18629C" d="M323.364,218.814c0-5.445,4.396-9.865,9.821-9.865
			s9.818,4.42,9.818,9.865c0,5.447-4.394,9.865-9.818,9.865S323.364,224.262,323.364,218.814z"/>
		<path fill-rule="evenodd" clip-rule="evenodd" fill="#18629C" d="M363.275,197.815c0-5.447,4.399-9.865,9.822-9.865
			c5.42,0,9.824,4.417,9.824,9.865c0,5.445-4.404,9.861-9.824,9.861C367.675,207.677,363.275,203.261,363.275,197.815z"/>
		<path fill-rule="evenodd" clip-rule="evenodd" fill="#18629C" d="M61.387,49.817c0-5.451,4.395-9.865,9.819-9.865
			c5.427,0,9.826,4.414,9.826,9.865c0,5.449-4.399,9.861-9.826,9.861C65.782,59.678,61.387,55.266,61.387,49.817z"/>
		<path fill-rule="evenodd" clip-rule="evenodd" fill="#18629C" d="M297.511,100.889c0-5.449,4.4-9.865,9.825-9.865
			c5.427,0,9.818,4.416,9.818,9.865c0,5.443-4.391,9.864-9.818,9.864C301.911,110.752,297.511,106.332,297.511,100.889z"/>
		<path fill-rule="evenodd" clip-rule="evenodd" fill="#18629C" d="M419.218,131.31c0-5.447,4.396-9.866,9.826-9.866
			c5.425,0,9.824,4.418,9.824,9.866s-4.399,9.866-9.824,9.866C423.613,141.176,419.218,136.757,419.218,131.31z"/>
		<path fill-rule="evenodd" clip-rule="evenodd" fill="#18629C" d="M490.594,158.783c0-5.445,4.394-9.856,9.819-9.856
			s9.819,4.411,9.819,9.856c0,5.455-4.394,9.871-9.819,9.871S490.594,164.238,490.594,158.783z"/>
		<ellipse fill-rule="evenodd" clip-rule="evenodd" fill="#18629C" cx="426.054" cy="29.261" rx="9.823" ry="9.864"/>
		<path fill-rule="evenodd" clip-rule="evenodd" fill="#18629C" d="M519.055,41.973c0-5.449,4.396-9.868,9.819-9.868
			c5.428,0,9.819,4.419,9.819,9.868c0,5.446-4.392,9.864-9.819,9.864C523.451,51.837,519.055,47.419,519.055,41.973z"/>
		<path fill-rule="evenodd" clip-rule="evenodd" fill="#18629C" d="M301.784,146.58c0-5.444,4.395-9.863,9.82-9.863
			c5.422,0,9.825,4.418,9.825,9.863c0,5.45-4.403,9.864-9.825,9.864C306.179,156.443,301.784,152.029,301.784,146.58z"/>
		<path fill-rule="evenodd" clip-rule="evenodd" fill="#18629C" d="M142.972,145.953c0-5.444,4.396-9.863,9.82-9.863
			c5.425,0,9.823,4.418,9.823,9.863c0,5.45-4.397,9.864-9.823,9.864C147.368,155.816,142.972,151.402,142.972,145.953z"/>
		<path fill-rule="evenodd" clip-rule="evenodd" fill="#18629C" d="M543.493,178.087c0-5.445,4.392-9.864,9.813-9.864
			c5.426,0,9.83,4.419,9.83,9.864c0,5.451-4.404,9.864-9.83,9.864C547.885,187.951,543.493,183.538,543.493,178.087z"/>
		<path fill-rule="evenodd" clip-rule="evenodd" fill="#18629C" d="M359.008,161.635c0-5.45,4.397-9.864,9.818-9.864
			c5.43,0,9.824,4.414,9.824,9.864c0,5.447-4.395,9.863-9.824,9.863C363.405,171.499,359.008,167.082,359.008,161.635z"/>
		<path fill-rule="evenodd" clip-rule="evenodd" fill="#18629C" d="M323.991,36.554c0-5.451,4.396-9.866,9.821-9.866
			s9.818,4.415,9.818,9.866c0,5.448-4.394,9.86-9.818,9.86S323.991,42.002,323.991,36.554z"/>
		<path fill-rule="evenodd" clip-rule="evenodd" fill="#18629C" d="M131.867,92.033c0-5.445,4.398-9.861,9.82-9.861
			c5.426,0,9.822,4.416,9.822,9.861c0,5.452-4.396,9.866-9.822,9.866C136.265,101.898,131.867,97.484,131.867,92.033z"/>
		<path fill-rule="evenodd" clip-rule="evenodd" fill="#18629C" d="M277.87,93.304c0-5.447,4.396-9.86,9.822-9.86
			c5.423,0,9.82,4.413,9.82,9.86c0,5.453-4.396,9.863-9.82,9.863C282.266,103.167,277.87,98.757,277.87,93.304z"/>
		<path fill-rule="evenodd" clip-rule="evenodd" fill="#18629C" d="M334.209,200.822c0-5.455,4.4-9.871,9.827-9.871
			c5.422,0,9.819,4.416,9.819,9.871c0,5.447-4.397,9.86-9.819,9.86C338.609,210.683,334.209,206.27,334.209,200.822z"/>
		<ellipse fill-rule="evenodd" clip-rule="evenodd" fill="#18629C" cx="313.219" cy="36.554" rx="9.821" ry="9.866"/>
		<ellipse fill-rule="evenodd" clip-rule="evenodd" fill="#18629C" cx="199.095" cy="151.496" rx="9.821" ry="9.866"/>
		<path fill-rule="evenodd" clip-rule="evenodd" fill="#18629C" d="M179.459,267.204c0-5.45,4.397-9.86,9.822-9.86
			c5.425,0,9.818,4.41,9.818,9.86c0,5.454-4.393,9.867-9.818,9.867C183.857,277.071,179.459,272.658,179.459,267.204z"/>
		<path fill-rule="evenodd" clip-rule="evenodd" fill="#18629C" d="M312.889,199.392c0-5.445,4.396-9.861,9.819-9.861
			s9.819,4.416,9.819,9.861c0,5.451-4.396,9.86-9.819,9.86S312.889,204.843,312.889,199.392z"/>
		<ellipse fill-rule="evenodd" clip-rule="evenodd" fill="#18629C" cx="510.18" cy="124.871" rx="9.823" ry="9.866"/>
		<path fill-rule="evenodd" clip-rule="evenodd" fill="#18629C" d="M349.803,143.101c0-5.447,4.396-9.868,9.82-9.868
			c5.425,0,9.818,4.42,9.818,9.868c0,5.445-4.394,9.863-9.818,9.863C354.199,152.964,349.803,148.546,349.803,143.101z"/>
		<path fill-rule="evenodd" clip-rule="evenodd" fill="#18629C" d="M391.46,23.686c0-5.448,4.399-9.866,9.824-9.866
			c5.421,0,9.819,4.418,9.819,9.866c0,5.447-4.398,9.866-9.819,9.866C395.859,33.552,391.46,29.133,391.46,23.686z"/>
		<path fill-rule="evenodd" clip-rule="evenodd" fill="#18629C" d="M275.666,72.394c0-5.447,4.397-9.862,9.822-9.862
			c5.424,0,9.821,4.415,9.821,9.862c0,5.454-4.397,9.866-9.821,9.866C280.063,82.26,275.666,77.848,275.666,72.394z"/>
		<path fill-rule="evenodd" clip-rule="evenodd" fill="#18629C" d="M282.138,51.996c0-5.453,4.397-9.867,9.823-9.867
			c5.427,0,9.823,4.415,9.823,9.867c0,5.447-4.396,9.861-9.823,9.861C286.535,61.856,282.138,57.442,282.138,51.996z"/>
		<path fill-rule="evenodd" clip-rule="evenodd" fill="#18629C" d="M156.303,87.836c0-5.45,4.397-9.861,9.822-9.861
			c5.424,0,9.824,4.411,9.824,9.861s-4.4,9.863-9.824,9.863C160.7,97.7,156.303,93.286,156.303,87.836z"/>
		<path fill-rule="evenodd" clip-rule="evenodd" fill="#18629C" d="M265.482,12.535c0-5.446,4.401-9.865,9.826-9.865
			c5.422,0,9.819,4.419,9.819,9.865c0,5.445-4.397,9.868-9.819,9.868C269.884,22.403,265.482,17.98,265.482,12.535z"/>
		<path fill-rule="evenodd" clip-rule="evenodd" fill="#18629C" d="M367.545,34.046c0-5.451,4.401-9.866,9.824-9.866
			c5.428,0,9.82,4.415,9.82,9.866c0,5.448-4.393,9.86-9.82,9.86C371.946,43.907,367.545,39.495,367.545,34.046z"/>
		<path fill-rule="evenodd" clip-rule="evenodd" fill="#18629C" d="M166.41,67.002c0-5.447,4.399-9.861,9.826-9.861
			c5.421,0,9.818,4.415,9.818,9.861c0,5.453-4.396,9.866-9.818,9.866C170.81,76.869,166.41,72.455,166.41,67.002z"/>
		<path fill-rule="evenodd" clip-rule="evenodd" fill="#18629C" d="M170.255,248.426c0-5.447,4.396-9.865,9.819-9.865
			c5.425,0,9.827,4.418,9.827,9.865s-4.401,9.865-9.827,9.865C174.651,258.291,170.255,253.873,170.255,248.426z"/>
		<path fill-rule="evenodd" clip-rule="evenodd" fill="#18629C" d="M167.265,139.914c0-5.45,4.398-9.863,9.822-9.863
			c5.425,0,9.823,4.413,9.823,9.863c0,5.45-4.398,9.866-9.823,9.866C171.663,149.78,167.265,145.364,167.265,139.914z"/>
		<path fill-rule="evenodd" clip-rule="evenodd" fill="#18629C" d="M469.755,151.398c0-5.455,4.399-9.868,9.824-9.868
			c5.426,0,9.819,4.414,9.819,9.868c0,5.447-4.394,9.866-9.819,9.866C474.154,161.264,469.755,156.846,469.755,151.398z"/>
		<path fill-rule="evenodd" clip-rule="evenodd" fill="#18629C" d="M489.131,204.413c0-5.449,4.403-9.86,9.826-9.86
			s9.817,4.411,9.817,9.86c0,5.447-4.395,9.863-9.817,9.863S489.131,209.86,489.131,204.413z"/>
		<path fill-rule="evenodd" clip-rule="evenodd" fill="#18629C" d="M488.827,72.582c0-5.452,4.401-9.866,9.826-9.866
			c5.423,0,9.818,4.414,9.818,9.866c0,5.447-4.396,9.861-9.818,9.861C493.229,82.443,488.827,78.029,488.827,72.582z"/>
		<path fill-rule="evenodd" clip-rule="evenodd" fill="#18629C" d="M462.351,131.466c0-5.449,4.396-9.871,9.819-9.871
			c5.428,0,9.826,4.421,9.826,9.871c0,5.445-4.398,9.858-9.826,9.858C466.747,141.324,462.351,136.911,462.351,131.466z"/>
		<path fill-rule="evenodd" clip-rule="evenodd" fill="#18629C" d="M525.741,167.887c0-5.45,4.399-9.869,9.827-9.869
			c5.423,0,9.819,4.419,9.819,9.869s-4.396,9.868-9.819,9.868C530.141,177.754,525.741,173.336,525.741,167.887z"/>
		<ellipse fill-rule="evenodd" clip-rule="evenodd" fill="#18629C" cx="175.949" cy="32.105" rx="9.821" ry="9.863"/>
	</g>
</g>
</svg>
